<svg width="194" height="114" viewBox="0 0 194 114" fill="none" xmlns="http://www.w3.org/2000/svg">
<g clip-path="url(#clip0_2008_2)">
<path d="M52.7961 74.591C45.8765 83.9346 39.5521 93.3192 33.8595 102.638L33.82 102.696C33.3694 103.402 32.7818 104.01 32.0922 104.485C31.4025 104.959 30.6249 105.29 29.8052 105.458C28.6305 105.739 27.4018 105.7 26.2475 105.344L26.126 105.304C21.7408 103.862 17.5595 101.86 13.6853 99.3473C9.20018 96.4929 5.17822 92.9669 1.75934 88.8922L1.74112 88.8666C1.30597 88.3602 0.997782 87.758 0.842195 87.1084C0.588053 86.0261 0.766805 84.8868 1.34025 83.9346L1.43895 83.7702C5.86158 76.1308 10.6733 68.7232 15.8552 61.578C17.0538 59.9214 18.2685 58.2871 19.4995 56.6751V74.5954H28.3444V53.9789C29.605 53.5673 30.9226 53.3584 32.2484 53.3599C35.1775 53.3599 36.3832 54.5415 36.3832 57.4142V74.5983H45.2266V57.1329C45.2643 56.126 45.148 55.1193 44.8819 54.1476C46.1356 53.6174 47.4843 53.3493 48.8451 53.3599C51.6026 53.3599 52.8082 54.5415 52.8082 57.3017L52.7961 74.591ZM192.959 45.7364L192.939 45.7972C190.986 52.1753 188.581 58.4054 185.741 64.44C185.145 61.8624 183.16 60.1515 178.709 58.1487C177.217 57.472 176.067 56.9093 175.206 56.5139C174.847 56.3683 174.516 56.1586 174.232 55.8949C173.945 55.6142 173.782 55.2316 173.776 54.8304C173.776 53.6473 175.154 52.9721 177.624 52.9721C180.16 52.9943 182.657 53.6115 184.912 54.7742V47.9035C182.407 46.8358 179.71 46.2989 176.987 46.3264C169.638 46.3264 165.159 49.6493 165.159 55.057C165.159 59.0004 166.882 61.0275 172.336 63.5063L175.9 65.132C176.875 65.5274 177.335 66.0901 177.335 66.8216C177.335 67.9484 176.072 68.5674 173.718 68.5674C170.732 68.5338 167.797 67.7806 165.162 66.3714V73.5277C167.96 74.7021 170.973 75.2772 174.007 75.2158C176.24 75.2736 178.465 74.9389 180.583 74.2278C174.235 85.0089 166.371 94.8202 157.234 103.359L157.184 103.399C156.425 104.104 155.492 104.593 154.481 104.817C153.062 105.174 151.56 104.955 150.3 104.209L150.258 104.189C145.248 101.475 141.022 97.5131 137.989 92.6849L137.977 92.6608C137.74 92.2822 137.566 91.8679 137.461 91.4331C137.321 90.8258 137.318 90.1937 137.453 89.5849C137.589 88.9762 137.858 88.4055 138.242 87.9144C138.242 87.9144 142.778 81.8315 147.672 74.9637C148.331 75.0156 149.03 75.0426 149.767 75.0426C153.995 74.9929 158.214 74.6729 162.401 74.0846V56.4576C162.401 52.8535 162.172 51.1639 161.425 49.8682C160.103 47.5567 157.117 46.3705 152.581 46.3705C148.532 46.3442 144.529 47.2277 140.865 48.9558V55.6745C144.08 54.0031 147.637 53.0976 151.259 53.0284C153.497 53.0284 154.296 53.5926 154.296 55.1681V57.0842C143.442 57.9845 139.02 60.8009 139.02 66.8839C139.02 71.3381 141.105 73.8537 145.637 74.7109C139.681 81.602 134.077 88.7906 128.848 96.2496C125.507 100.948 122.326 105.671 119.304 110.417L119.279 110.459C118.387 111.815 116.994 112.76 115.407 113.087C114.2 113.379 112.936 113.319 111.762 112.914L111.644 112.868C108.659 111.7 105.786 110.264 103.058 108.58C98.2449 105.661 93.958 101.95 90.3777 97.6015L90.3442 97.562C89.9343 97.0746 89.6433 96.4995 89.4938 95.8798C89.2655 94.9166 89.3924 93.9031 89.8512 93.0254L89.9146 92.8931C91.6183 89.6997 93.4803 86.553 95.3721 83.3778C96.1452 82.0814 96.9329 80.8011 97.7344 79.5369L97.8548 79.3556C97.9065 79.2906 97.9343 79.2102 97.9335 79.1276C97.9328 79.0779 97.9226 79.0283 97.9029 78.9829C97.8839 78.9369 97.8555 78.896 97.8197 78.8609C97.784 78.8266 97.7424 78.7988 97.6958 78.7805C97.6498 78.7623 97.6009 78.7527 97.5514 78.7535C97.4886 78.7527 97.4274 78.7681 97.3719 78.7966C97.3172 78.8251 97.2691 78.8667 97.2334 78.9179L97.1896 78.9676C90.6053 87.6192 84.5607 96.3511 79.0761 105.074L78.977 105.234C78.5277 105.919 77.9471 106.508 77.2696 106.968C76.5921 107.428 75.8314 107.75 75.0291 107.916C73.9468 108.172 72.8177 108.157 71.7418 107.874L71.6416 107.848C71.6128 107.848 71.5839 107.83 71.5551 107.821C69.7641 107.262 68.0025 106.612 66.277 105.875C58.868 102.864 52.334 98.0363 47.2766 91.835L47.2021 91.7393C46.8593 91.2833 46.6138 90.7615 46.4809 90.2061C46.2303 89.156 46.3934 88.0489 46.9364 87.1157L46.9562 87.0777C49.1306 83.0314 51.5024 78.8068 54.0579 74.5954H61.632V56.9078C61.632 52.9645 60.9426 50.8248 59.1053 49.079C57.2102 47.2769 54.2811 46.3751 50.3772 46.3751C46.966 46.354 43.586 47.0266 40.442 48.3521C37.8967 46.8949 34.9841 46.2082 32.057 46.3751C30.5403 46.3734 29.0245 46.4562 27.5168 46.6229C41.189 30.1733 57.0993 15.7271 74.7819 3.70747C76.6249 2.44202 78.6466 1.4599 80.7798 0.793713C83.4703 0.249286 87.7937 3.41244 87.7937 3.41244C89.3122 4.42627 90.8088 5.53338 92.2849 6.73376C95.8243 9.61321 98.975 12.9411 101.658 16.6339L101.682 16.6658C101.959 17.0794 102.107 17.5665 102.107 18.0649C102.106 18.3998 102.038 18.7312 101.908 19.0396C101.778 19.3481 101.587 19.6273 101.347 19.8609C101.347 19.8609 91.8889 28.9853 87.2467 33.8122L87.2117 33.8533C87.1461 33.9219 87.1089 34.0135 87.1089 34.1087C87.1096 34.2097 87.1512 34.3061 87.2227 34.3768C87.2949 34.4475 87.3919 34.4867 87.4925 34.4859C87.5837 34.4849 87.6719 34.4527 87.742 34.3946L87.7616 34.3764C96.5201 26.3806 106.029 19.2507 116.156 13.0859C118.102 11.9587 120.172 11.0615 122.324 10.4125C124.754 9.96384 128.702 12.8958 128.702 12.8958C130.197 13.8828 131.727 14.9641 133.169 16.135C136.634 18.9266 139.73 22.1492 142.382 25.7248L142.409 25.7644C142.693 26.1789 142.845 26.6699 142.845 27.1726C142.845 27.5154 142.774 27.8544 142.637 28.1684C142.5 28.4824 142.299 28.7647 142.048 28.9975C142.048 28.9975 133.565 37.7874 129.181 42.1854L129.094 42.2676C129.03 42.3376 128.993 42.4292 128.992 42.5246C128.992 42.5746 129.003 42.624 129.022 42.6701C129.041 42.7161 129.07 42.7579 129.105 42.793C129.141 42.828 129.183 42.8557 129.229 42.8743C129.275 42.893 129.325 42.9023 129.375 42.9017C129.469 42.9018 129.559 42.8677 129.63 42.8059C129.63 42.8059 151.596 23.4346 157.718 22.4765C166.796 21.0577 190.65 34.5558 192.87 41.1483C193.372 42.6319 193.403 44.2346 192.959 45.7364ZM86.9069 56.4576C86.9069 52.8535 86.6771 51.1639 85.9303 49.8682C84.6095 47.5567 81.6237 46.3705 77.0865 46.3705C73.0381 46.344 69.0347 47.2275 65.3719 48.9558V55.6745C68.5871 54.0031 72.144 53.0976 75.7657 53.0284C78.0055 53.0284 78.8026 53.5926 78.8026 55.1681V57.0842C67.9548 57.9784 63.5346 60.7948 63.5346 66.8778C63.5346 72.5046 66.8646 75.0456 74.2728 75.0456C78.5007 74.9959 82.7198 74.6765 86.9069 74.0875V56.4576ZM108.025 46.9362C106.396 46.5375 104.722 46.3489 103.045 46.3751C98.4411 46.4251 93.8858 47.3225 89.6061 49.0227V74.5954H98.4484V54.6556C100.241 54.0416 102.125 53.7368 104.02 53.7538C105.372 53.7415 106.72 53.9144 108.025 54.2677V46.9362ZM131.604 63.555L128.678 59.3866C131.95 55.8372 135.168 52.0079 138.038 48.2349L138.957 46.9956H129.132C126.338 50.8263 123.328 54.4938 120.115 57.9799L119.426 58.7692V32.3493H110.589V74.5954H119.432V60.1196L120.181 61.3028C123.103 65.8978 126.266 70.3349 129.655 74.5954H140.285C137.704 71.6666 134.255 67.2732 131.611 63.555M154.707 68.5734V62.7718C148.85 63.336 146.954 64.2363 146.954 66.49C146.954 68.1796 148.048 68.9673 150.459 68.9673C151.884 68.9579 153.307 68.8255 154.71 68.572M71.4685 66.4885C71.4685 68.1781 72.5588 68.9658 74.9715 68.9658C76.3973 68.9563 77.8202 68.824 79.2235 68.5704V62.7688C73.3663 63.3329 71.4716 64.2332 71.4716 66.487" fill="#28C7E7"/>
<path d="M19.3271 57.3654C20.7857 55.027 26.3772 48.3526 29.1729 45.3077L36.1015 43.4808L76.579 38.3654L97 36.5385L102.47 30.6923L123.62 24.8462V45.3077L187.071 43.4808C186.95 48.5962 186.78 59.1193 187.071 60.2885C187.363 61.4577 181.602 71.7372 178.684 76.7308L162.274 78.5577L145.865 78.1923C146.351 77.0962 149.556 73.4869 148.782 72.7116C148.053 71.9808 145.135 74.4165 143.312 77.0962L55.4286 76.7308L51.782 74.1731L39.3835 76.7308H18.2331C17.99 71.25 17.8684 59.7039 19.3271 57.3654Z" fill="#28C7E7"/>
<path d="M100 33.4999C99.2 35.0999 92 37.5 88.5 38.5L120 40.5L126 45.5C127 39.5 128.6 26.5 127 22.5C125 17.5 121 20 119 20.4999C117 20.9999 107 25.9999 104.5 27.4999C102 28.9999 101 31.4999 100 33.4999Z" fill="#28C7E7" stroke="#28C7E7"/>
<path d="M131.604 63.555L128.678 59.3866C131.95 55.8372 135.168 52.0079 138.038 48.2349L138.957 46.9956H129.132C126.338 50.8263 123.328 54.4938 120.115 57.9799L119.426 58.7692V32.3493H110.589V74.5954H119.432V60.1196L120.181 61.3028C123.103 65.8978 126.266 70.3349 129.655 74.5954H140.285C137.704 71.6666 134.255 67.2732 131.611 63.555M154.707 68.5734V62.7718C148.85 63.336 146.954 64.2363 146.954 66.49C146.954 68.1796 148.048 68.9673 150.459 68.9673C151.884 68.9579 153.307 68.8255 154.71 68.572M71.4685 66.4885C71.4685 68.1781 72.5588 68.9658 74.9715 68.9658C76.3973 68.9563 77.8202 68.824 79.2235 68.5704V62.7688C73.3663 63.3329 71.4716 64.2332 71.4716 66.487M52.7961 74.591C45.8765 83.9346 39.5521 93.3192 33.8595 102.638L33.82 102.696C33.3694 103.402 32.7818 104.01 32.0922 104.485C31.4025 104.959 30.6249 105.29 29.8052 105.458C28.6305 105.739 27.4018 105.7 26.2475 105.344L26.126 105.304C21.7408 103.862 17.5595 101.86 13.6853 99.3473C9.20018 96.4929 5.17822 92.9669 1.75934 88.8922L1.74112 88.8666C1.30597 88.3602 0.997782 87.758 0.842195 87.1084C0.588053 86.0261 0.766805 84.8868 1.34025 83.9346L1.43895 83.7702C5.86158 76.1308 10.6733 68.7232 15.8552 61.578C17.0538 59.9214 18.2685 58.2871 19.4995 56.6751V74.5954H28.3444V53.9789C29.605 53.5673 30.9226 53.3584 32.2484 53.3599C35.1775 53.3599 36.3832 54.5415 36.3832 57.4142V74.5983H45.2266V57.1329C45.2643 56.126 45.148 55.1193 44.8819 54.1476C46.1356 53.6174 47.4843 53.3493 48.8451 53.3599C51.6026 53.3599 52.8082 54.5415 52.8082 57.3017L52.7961 74.591ZM192.959 45.7364L192.939 45.7972C190.986 52.1753 188.581 58.4054 185.741 64.44C185.145 61.8624 183.16 60.1515 178.709 58.1487C177.217 57.472 176.067 56.9093 175.206 56.5139C174.847 56.3683 174.516 56.1586 174.232 55.8949C173.945 55.6142 173.782 55.2316 173.776 54.8304C173.776 53.6473 175.154 52.9721 177.624 52.9721C180.16 52.9943 182.657 53.6115 184.912 54.7742V47.9035C182.407 46.8358 179.71 46.2989 176.987 46.3264C169.638 46.3264 165.159 49.6493 165.159 55.057C165.159 59.0004 166.882 61.0275 172.336 63.5063L175.9 65.132C176.875 65.5274 177.335 66.0901 177.335 66.8216C177.335 67.9484 176.072 68.5674 173.718 68.5674C170.732 68.5338 167.797 67.7806 165.162 66.3714V73.5277C167.96 74.7021 170.973 75.2772 174.007 75.2158C176.24 75.2736 178.465 74.9389 180.583 74.2278C174.235 85.0089 166.371 94.8202 157.234 103.359L157.184 103.399C156.425 104.104 155.492 104.593 154.481 104.817C153.062 105.174 151.56 104.955 150.3 104.209L150.258 104.189C145.248 101.475 141.022 97.5131 137.989 92.6849L137.977 92.6608C137.74 92.2822 137.566 91.8679 137.461 91.4331C137.321 90.8258 137.318 90.1937 137.453 89.5849C137.589 88.9762 137.858 88.4055 138.242 87.9144C138.242 87.9144 142.778 81.8315 147.672 74.9637C148.331 75.0156 149.03 75.0426 149.767 75.0426C153.995 74.9929 158.214 74.6729 162.401 74.0846V56.4576C162.401 52.8535 162.172 51.1639 161.425 49.8682C160.103 47.5567 157.117 46.3705 152.581 46.3705C148.532 46.3442 144.529 47.2277 140.865 48.9558V55.6745C144.08 54.0031 147.637 53.0976 151.259 53.0284C153.497 53.0284 154.296 53.5926 154.296 55.1681V57.0842C143.442 57.9845 139.02 60.8009 139.02 66.8839C139.02 71.3381 141.105 73.8537 145.637 74.7109C139.681 81.602 134.077 88.7906 128.848 96.2496C125.507 100.948 122.326 105.671 119.304 110.417L119.279 110.459C118.387 111.815 116.994 112.76 115.407 113.087C114.2 113.379 112.936 113.319 111.762 112.914L111.644 112.868C108.659 111.7 105.786 110.264 103.058 108.58C98.2449 105.661 93.958 101.95 90.3777 97.6015L90.3442 97.562C89.9343 97.0746 89.6433 96.4995 89.4938 95.8798C89.2655 94.9166 89.3924 93.9031 89.8512 93.0254L89.9146 92.8931C91.6183 89.6997 93.4803 86.553 95.3721 83.3778C96.1452 82.0814 96.9329 80.8011 97.7344 79.5369L97.8548 79.3556C97.9065 79.2906 97.9343 79.2102 97.9335 79.1276C97.9328 79.0779 97.9226 79.0283 97.9029 78.9829C97.8839 78.9369 97.8555 78.896 97.8197 78.8609C97.784 78.8266 97.7424 78.7988 97.6958 78.7805C97.6498 78.7623 97.6009 78.7527 97.5514 78.7535C97.4886 78.7527 97.4274 78.7681 97.3719 78.7966C97.3172 78.8251 97.2691 78.8667 97.2334 78.9179L97.1896 78.9676C90.6053 87.6192 84.5607 96.3511 79.0761 105.074L78.977 105.234C78.5277 105.919 77.9471 106.508 77.2696 106.968C76.5921 107.428 75.8314 107.75 75.0291 107.916C73.9468 108.172 72.8177 108.157 71.7418 107.874L71.6416 107.848C71.6128 107.848 71.5839 107.83 71.5551 107.821C69.7641 107.262 68.0025 106.612 66.277 105.875C58.868 102.864 52.334 98.0363 47.2766 91.835L47.2021 91.7393C46.8593 91.2833 46.6138 90.7615 46.4809 90.2061C46.2303 89.156 46.3934 88.0489 46.9364 87.1157L46.9562 87.0777C49.1306 83.0314 51.5024 78.8068 54.0579 74.5954H61.632V56.9078C61.632 52.9645 60.9426 50.8248 59.1053 49.079C57.2102 47.2769 54.2811 46.3751 50.3772 46.3751C46.966 46.354 43.586 47.0266 40.442 48.3521C37.8967 46.8949 34.9841 46.2082 32.057 46.3751C30.5403 46.3734 29.0245 46.4562 27.5168 46.6229C41.189 30.1733 57.0993 15.7271 74.7819 3.70747C76.6249 2.44202 78.6466 1.4599 80.7798 0.793713C83.4703 0.249286 87.7937 3.41244 87.7937 3.41244C89.3122 4.42627 90.8088 5.53338 92.2849 6.73376C95.8243 9.61321 98.975 12.9411 101.658 16.6339L101.682 16.6658C101.959 17.0794 102.107 17.5665 102.107 18.0649C102.106 18.3998 102.038 18.7312 101.908 19.0396C101.778 19.3481 101.587 19.6273 101.347 19.8609C101.347 19.8609 91.8889 28.9853 87.2467 33.8122L87.2117 33.8533C87.1461 33.9219 87.1089 34.0135 87.1089 34.1087C87.1096 34.2097 87.1512 34.3061 87.2227 34.3768C87.2949 34.4475 87.3919 34.4867 87.4925 34.4859C87.5837 34.4849 87.6719 34.4527 87.742 34.3946L87.7616 34.3764C96.5201 26.3806 106.029 19.2507 116.156 13.0859C118.102 11.9587 120.172 11.0615 122.324 10.4125C124.754 9.96384 128.702 12.8958 128.702 12.8958C130.197 13.8828 131.727 14.9641 133.169 16.135C136.634 18.9266 139.73 22.1492 142.382 25.7248L142.409 25.7644C142.693 26.1789 142.845 26.6699 142.845 27.1726C142.845 27.5154 142.774 27.8544 142.637 28.1684C142.5 28.4824 142.299 28.7647 142.048 28.9975C142.048 28.9975 133.565 37.7874 129.181 42.1854L129.094 42.2676C129.03 42.3376 128.993 42.4292 128.992 42.5246C128.992 42.5746 129.003 42.624 129.022 42.6701C129.041 42.7161 129.07 42.7579 129.105 42.793C129.141 42.828 129.183 42.8557 129.229 42.8743C129.275 42.893 129.325 42.9023 129.375 42.9017C129.469 42.9018 129.559 42.8677 129.63 42.8059C129.63 42.8059 151.596 23.4346 157.718 22.4765C166.796 21.0577 190.65 34.5558 192.87 41.1483C193.372 42.6319 193.403 44.2346 192.959 45.7364ZM86.9069 56.4576C86.9069 52.8535 86.6771 51.1639 85.9303 49.8682C84.6095 47.5567 81.6237 46.3705 77.0865 46.3705C73.0381 46.344 69.0347 47.2275 65.3719 48.9558V55.6745C68.5871 54.0031 72.144 53.0976 75.7657 53.0284C78.0055 53.0284 78.8026 53.5926 78.8026 55.1681V57.0842C67.9548 57.9784 63.5346 60.7948 63.5346 66.8778C63.5346 72.5046 66.8646 75.0456 74.2728 75.0456C78.5007 74.9959 82.7198 74.6765 86.9069 74.0875V56.4576ZM108.025 46.9362C106.396 46.5375 104.722 46.3489 103.045 46.3751C98.4411 46.4251 93.8858 47.3225 89.6061 49.0227V74.5954H98.4484V54.6556C100.241 54.0416 102.125 53.7368 104.02 53.7538C105.372 53.7415 106.72 53.9144 108.025 54.2677V46.9362ZM19.3271 57.3653C20.7857 55.0269 26.3772 48.3525 29.1729 45.3076L36.1015 43.4807L76.5789 38.3653L97 36.5384L102.47 30.6923L123.62 24.8461V45.3076L187.071 43.4807C186.95 48.5961 186.78 59.1192 187.071 60.2884C187.363 61.4576 181.601 71.7371 178.684 76.7307L162.274 78.5576L145.865 78.1922C146.351 77.0961 149.556 73.4868 148.782 72.7115C148.053 71.9807 145.135 74.4164 143.312 77.0961L55.4286 76.7307L51.7819 74.173L39.3834 76.7307H18.2331C17.99 71.2499 17.8684 59.7038 19.3271 57.3653Z" stroke="#28C7E7"/>
<path d="M31.0322 49.6157V71.4037H21.8797V45.6287C24.9679 43.4387 29.5723 41.6417 34.6258 41.6417C38.2755 41.6417 41.1392 42.3717 43.2168 43.8318C45.4628 42.4279 48.158 41.6417 51.134 41.6417C59.8934 41.6417 64.0485 45.6849 64.0485 54.1081V71.4037H54.896V54.3888C54.896 50.5141 53.5484 48.8857 50.5163 48.8857C49.2249 48.8857 48.0457 49.1665 46.9788 49.6719C47.3157 50.9634 47.428 52.4234 47.428 54.1081V71.4037H38.3317V54.3888C38.3317 50.5141 36.9841 48.8857 33.952 48.8857C32.9413 48.8857 31.9867 49.1665 31.0322 49.6157Z" fill="white"/>
<path d="M65.1768 58.095V55.6242C65.1768 46.808 69.8934 41.6417 79.8317 41.6417C89.7702 41.6417 94.5437 46.808 94.5437 55.6242V58.095C94.5437 66.9113 89.7702 72.0775 79.8317 72.0775C69.8934 72.0775 65.1768 66.9113 65.1768 58.095ZM85.3906 58.2635V55.4558C85.3906 50.9634 83.3135 48.8857 79.7756 48.8857C76.2945 48.8857 74.2728 50.9634 74.2728 55.4558V58.2635C74.2728 62.7558 76.3507 64.8336 79.8879 64.8336C83.3697 64.8336 85.3906 62.7558 85.3906 58.2635Z" fill="white"/>
<path d="M95.6405 83.3084V45.6287C99.4585 42.9894 104.287 41.6417 108.948 41.6417C118.831 41.6417 123.547 45.8533 123.547 55.5681V58.095C123.547 67.8098 119.279 72.0775 110.857 72.0775C108.555 72.0775 106.365 71.5721 104.793 70.6737V83.3084H95.6405ZM114.394 58.3758V55.3434C114.394 51.2442 113.047 48.8857 108.779 48.8857C107.376 48.8857 106.028 49.1665 104.793 49.6719V63.542C106.028 64.3844 107.432 64.8336 109.285 64.8336C113.103 64.8336 114.394 62.4751 114.394 58.3758Z" fill="white"/>
<path d="M125.663 71.4037V42.3156H134.815V71.4037H125.663ZM130.211 38.0478C127.066 38.0478 125.214 37.0932 125.214 34.847V33.6116C125.214 31.3092 127.066 30.4108 130.211 30.4108C133.411 30.4108 135.265 31.3092 135.265 33.6116V34.847C135.265 37.0932 133.411 38.0478 130.211 38.0478Z" fill="white"/>
<path d="M140.504 49.5595H135.9V42.3156H140.504V39.5078C140.504 33.5555 142.75 29.9615 150.106 29.9615C152.633 29.9615 155.271 30.4669 157.349 31.3092V38.0478C155.777 37.4863 154.036 37.2055 152.127 37.2055C150.274 37.2055 149.656 38.0478 149.656 39.7324V42.3156H157.349V49.5595H149.656V71.4037H140.504V49.5595Z" fill="white"/>
<path d="M175.367 42.3156H184.519V71.5721C184.519 79.827 180.42 84.0385 170.931 84.0385C167.168 84.0385 162.901 83.421 159.701 82.0171V74.3236C162.901 76.008 166.382 76.7381 169.527 76.7381C173.12 76.7381 175.367 75.1662 175.367 71.4037V70.6175C173.626 71.4598 171.099 72.0775 168.628 72.0775C160.879 72.0775 157.342 68.2028 157.342 59.6674V42.3156H166.494V59.3865C166.494 63.1489 167.674 64.8335 170.875 64.8335C172.446 64.8335 174.243 64.2159 175.367 63.3174V42.3156Z" fill="white"/>
<path d="M19.5 76C17.9 74.4 17.1667 68.6667 17 66L13 71.5L17 83L29 79.5C26.5 79 21.1 77.6 19.5 76Z" fill="#28C7E7" stroke="#28C7E7"/>
</g>
<defs>
<clipPath id="clip0_2008_2">
<rect width="194" height="114" fill="white"/>
</clipPath>
</defs>
</svg>
