<svg width="266" height="156" viewBox="0 0 266 156" fill="none" xmlns="http://www.w3.org/2000/svg">
<path d="M72.3905 102.072C62.9028 114.858 54.2313 127.7 46.4259 140.452L46.3717 140.531C45.7539 141.497 44.9483 142.33 44.0027 142.979C43.0571 143.628 41.9908 144.081 40.8669 144.311C39.2562 144.696 37.5716 144.642 35.9888 144.155L35.8222 144.1C29.8095 142.127 24.0764 139.387 18.7644 135.949C12.6147 132.043 7.10005 127.218 2.41231 121.642L2.38733 121.607C1.79068 120.914 1.36811 120.09 1.15478 119.201C0.806317 117.72 1.05141 116.161 1.83768 114.858L1.97301 114.633C8.03703 104.179 14.6346 94.0424 21.7396 84.2647C23.383 81.9978 25.0486 79.7614 26.7364 77.5555V102.078H38.864V73.8659C40.5924 73.3027 42.399 73.0169 44.2169 73.0189C48.2331 73.0189 49.8862 74.6358 49.8862 78.5669V102.082H62.0118V78.1819C62.0634 76.8041 61.904 75.4265 61.5391 74.0968C63.2581 73.3712 65.1073 73.0044 66.9732 73.0189C70.7541 73.0189 72.4072 74.6358 72.4072 78.4129L72.3905 102.072ZM264.572 62.5867L264.545 62.6699C261.868 71.3978 258.57 79.9233 254.676 88.1812C253.858 84.6539 251.137 82.3127 245.034 79.572C242.988 78.646 241.412 77.876 240.231 77.3349C239.738 77.1357 239.285 76.8487 238.895 76.4879C238.502 76.1037 238.278 75.5801 238.27 75.0312C238.27 73.4122 240.16 72.4882 243.546 72.4882C247.024 72.5186 250.447 73.3632 253.539 74.9542V65.5522C250.105 64.0912 246.406 63.3564 242.673 63.3941C232.597 63.3941 226.455 67.9412 226.455 75.3413C226.455 80.7374 228.818 83.5114 236.296 86.9035L241.183 89.1281C242.519 89.6691 243.15 90.4391 243.15 91.4401C243.15 92.9821 241.418 93.8291 238.191 93.8291C234.096 93.7832 230.072 92.7525 226.459 90.8241V100.617C230.296 102.224 234.427 103.011 238.587 102.927C241.648 103.006 244.7 102.548 247.604 101.575C238.899 116.328 228.117 129.754 215.589 141.439L215.52 141.493C214.479 142.458 213.2 143.128 211.814 143.434C209.868 143.923 207.809 143.623 206.082 142.602L206.024 142.575C199.155 138.861 193.36 133.439 189.201 126.832L189.185 126.799C188.86 126.281 188.621 125.714 188.477 125.119C188.285 124.288 188.282 123.423 188.467 122.59C188.653 121.757 189.022 120.976 189.549 120.304C189.549 120.304 195.768 111.98 202.478 102.582C203.382 102.653 204.34 102.69 205.351 102.69C211.148 102.622 216.933 102.184 222.674 101.379V77.2579C222.674 72.3259 222.359 70.0139 221.335 68.2408C219.522 65.0777 215.428 63.4545 209.209 63.4545C203.657 63.4185 198.168 64.6274 193.145 66.9922V76.1862C197.553 73.8991 202.43 72.6599 207.396 72.5652C210.465 72.5652 211.56 73.3373 211.56 75.4932V78.1153C196.678 79.3473 190.615 83.2013 190.615 91.5254C190.615 97.6207 193.474 101.063 199.688 102.236C191.522 111.666 183.838 121.503 176.668 131.71C172.087 138.14 167.725 144.603 163.582 151.097L163.547 151.155C162.324 153.01 160.415 154.303 158.238 154.751C156.584 155.15 154.85 155.068 153.241 154.514L153.079 154.451C148.986 152.853 145.047 150.888 141.307 148.583C134.707 144.589 128.829 139.51 123.92 133.56L123.874 133.506C123.312 132.839 122.913 132.052 122.708 131.204C122.395 129.886 122.569 128.499 123.198 127.298L123.285 127.117C125.621 122.747 128.174 118.441 130.768 114.096C131.828 112.322 132.908 110.57 134.007 108.84L134.172 108.592C134.243 108.503 134.281 108.393 134.28 108.28C134.279 108.212 134.265 108.144 134.238 108.082C134.212 108.019 134.173 107.963 134.124 107.915C134.075 107.868 134.018 107.83 133.954 107.805C133.891 107.78 133.824 107.767 133.756 107.768C133.67 107.767 133.586 107.788 133.51 107.827C133.435 107.866 133.369 107.923 133.32 107.993L133.26 108.061C124.232 119.9 115.944 131.849 108.424 143.786L108.288 144.005C107.672 144.942 106.876 145.748 105.947 146.378C105.018 147.007 103.975 147.448 102.875 147.674C101.391 148.025 99.8428 148.005 98.3677 147.617L98.2303 147.582C98.1907 147.582 98.1512 147.557 98.1116 147.544C95.6559 146.779 93.2405 145.89 90.8746 144.881C80.7159 140.762 71.7569 134.155 64.8225 125.669L64.7204 125.538C64.2504 124.914 63.9138 124.2 63.7315 123.44C63.3879 122.003 63.6116 120.488 64.3561 119.211L64.3832 119.159C67.3646 113.622 70.6167 107.841 74.1207 102.078H84.5057V77.8739C84.5057 72.4778 83.5605 69.5498 81.0413 67.1608C78.4429 64.6948 74.4267 63.4607 69.0739 63.4607C64.3967 63.4319 59.7623 64.3522 55.4514 66.1661C51.9615 64.172 47.9679 63.2323 43.9545 63.4607C41.8748 63.4584 39.7965 63.5717 37.7293 63.7999C56.4757 41.2898 78.2908 21.5214 102.536 5.07345C105.063 3.34179 107.835 1.99783 110.76 1.08621C114.449 0.341205 120.377 4.66973 120.377 4.66973C122.459 6.05708 124.511 7.57207 126.535 9.21469C131.388 13.155 135.708 17.7089 139.387 22.7622L139.419 22.8059C139.799 23.3719 140.002 24.0385 140.002 24.7204C140.001 25.1787 139.908 25.6323 139.729 26.0543C139.551 26.4764 139.289 26.8585 138.961 27.1781C138.961 27.1781 125.992 39.6642 119.627 46.2694L119.579 46.3256C119.489 46.4195 119.438 46.5448 119.438 46.6752C119.439 46.8134 119.496 46.9453 119.594 47.042C119.693 47.1387 119.826 47.1924 119.964 47.1913C120.089 47.1899 120.21 47.1459 120.306 47.0664L120.333 47.0415C132.342 36.0998 145.38 26.3431 159.266 17.9071C161.934 16.3646 164.772 15.1369 167.723 14.2487C171.055 13.6348 176.468 17.647 176.468 17.647C178.517 18.9976 180.615 20.4772 182.593 22.0796C187.344 25.8997 191.589 30.3095 195.225 35.2025L195.262 35.2566C195.651 35.8239 195.86 36.4957 195.86 37.1836C195.859 37.6527 195.762 38.1166 195.574 38.5463C195.386 38.976 195.111 39.3623 194.767 39.6809C194.767 39.6809 183.136 51.7092 177.124 57.7275L177.005 57.8399C176.917 57.9358 176.867 58.0611 176.866 58.1916C176.866 58.26 176.88 58.3277 176.906 58.3907C176.933 58.4537 176.972 58.5109 177.02 58.5589C177.069 58.6068 177.127 58.6447 177.19 58.6702C177.254 58.6958 177.322 58.7085 177.39 58.7077C177.519 58.7078 177.643 58.6612 177.74 58.5766C177.74 58.5766 207.858 32.0685 216.253 30.7574C228.699 28.8159 261.407 47.287 264.451 56.3083C265.139 58.3384 265.181 60.5316 264.572 62.5867ZM119.161 77.2579C119.161 72.3259 118.846 70.0139 117.822 68.2408C116.011 65.0777 111.917 63.4545 105.696 63.4545C100.145 63.4182 94.6559 64.6272 89.6337 66.9922V76.1862C94.0421 73.8991 98.9191 72.6599 103.885 72.5652C106.956 72.5652 108.049 73.3373 108.049 75.4932V78.1153C93.1752 79.3389 87.1145 83.193 87.1145 91.5171C87.1145 99.2169 91.6803 102.694 101.838 102.694C107.635 102.626 113.42 102.189 119.161 101.383V77.2579ZM148.117 64.2286C145.883 63.683 143.588 63.4249 141.288 63.4607C134.976 63.5291 128.73 64.7572 122.862 67.0838V102.078H134.986V74.7919C137.444 73.9518 140.027 73.5346 142.625 73.5579C144.479 73.5411 146.327 73.7777 148.117 74.2612V64.2286ZM180.447 86.9701L176.435 81.266C180.921 76.4089 185.333 71.1688 189.268 66.0058L190.528 64.3098H177.057C173.226 69.5519 169.099 74.5705 164.694 79.341L163.749 80.4211V44.2675H151.632V102.078H163.757V82.269L164.784 83.8881C168.791 90.176 173.127 96.2479 177.775 102.078H192.349C188.81 98.0702 184.082 92.0582 180.457 86.9701M212.124 93.8374V85.8983C204.094 86.6704 201.494 87.9024 201.494 90.9864C201.494 93.2985 202.993 94.3764 206.299 94.3764C208.254 94.3635 210.204 94.1824 212.128 93.8354M97.9929 90.9843C97.9929 93.2964 99.4878 94.3743 102.796 94.3743C104.751 94.3614 106.702 94.1803 108.626 93.8333V85.8942C100.595 86.6662 97.9971 87.8982 97.9971 90.9823" fill="#F25415"/>
<path d="M26.5 78.5C28.5 75.3 36.1667 66.1667 40 62L49.5 59.5L105 52.5L133 50L140.5 42L169.5 34V62L256.5 59.5C256.333 66.5 256.1 80.9 256.5 82.5C256.9 84.1 249 98.1667 245 105L222.5 107.5L200 107C200.667 105.5 205.061 100.561 204 99.5C203 98.5 199 101.833 196.5 105.5L76 105L71 101.5L54 105H25C24.6667 97.5 24.5 81.7 26.5 78.5Z" fill="#F25415"/>
<path d="M180.447 86.9701L176.435 81.266C180.921 76.4089 185.333 71.1688 189.268 66.0058L190.528 64.3098H177.057C173.226 69.5519 169.099 74.5705 164.694 79.341L163.749 80.4211V44.2675H151.632V102.078H163.757V82.269L164.784 83.8881C168.791 90.176 173.127 96.2479 177.775 102.078H192.349C188.81 98.0702 184.082 92.0582 180.457 86.9701M212.124 93.8374V85.8983C204.094 86.6704 201.494 87.9024 201.494 90.9864C201.494 93.2985 202.993 94.3764 206.299 94.3764C208.254 94.3635 210.204 94.1824 212.128 93.8354M97.9929 90.9843C97.9929 93.2964 99.4878 94.3743 102.796 94.3743C104.751 94.3614 106.702 94.1803 108.626 93.8333V85.8942C100.595 86.6662 97.9971 87.8982 97.9971 90.9823M72.3905 102.072C62.9028 114.858 54.2313 127.7 46.4259 140.452L46.3717 140.531C45.7539 141.497 44.9483 142.33 44.0027 142.979C43.0571 143.628 41.9908 144.081 40.8669 144.311C39.2562 144.696 37.5716 144.642 35.9888 144.155L35.8222 144.1C29.8095 142.127 24.0764 139.387 18.7644 135.949C12.6147 132.043 7.10005 127.218 2.41231 121.642L2.38733 121.607C1.79068 120.914 1.36811 120.09 1.15478 119.201C0.806317 117.72 1.05141 116.161 1.83768 114.858L1.97301 114.633C8.03703 104.179 14.6346 94.0424 21.7396 84.2647C23.383 81.9978 25.0486 79.7614 26.7364 77.5555V102.078H38.864V73.8659C40.5924 73.3027 42.399 73.0169 44.2169 73.0189C48.2331 73.0189 49.8862 74.6358 49.8862 78.5669V102.082H62.0118V78.1819C62.0634 76.8041 61.904 75.4265 61.5391 74.0968C63.2581 73.3712 65.1073 73.0044 66.9732 73.0189C70.7541 73.0189 72.4072 74.6358 72.4072 78.4129L72.3905 102.072ZM264.572 62.5867L264.545 62.6699C261.868 71.3978 258.57 79.9233 254.676 88.1812C253.858 84.6539 251.137 82.3127 245.034 79.572C242.988 78.646 241.412 77.876 240.231 77.3349C239.738 77.1357 239.285 76.8487 238.895 76.4879C238.502 76.1037 238.278 75.5801 238.27 75.0312C238.27 73.4122 240.16 72.4882 243.546 72.4882C247.024 72.5186 250.447 73.3632 253.539 74.9542V65.5522C250.105 64.0912 246.406 63.3564 242.673 63.3941C232.597 63.3941 226.455 67.9412 226.455 75.3413C226.455 80.7374 228.818 83.5114 236.296 86.9035L241.183 89.1281C242.519 89.6691 243.15 90.4391 243.15 91.4401C243.15 92.9821 241.418 93.8291 238.191 93.8291C234.096 93.7832 230.072 92.7525 226.459 90.8241V100.617C230.296 102.224 234.427 103.011 238.587 102.927C241.648 103.006 244.7 102.548 247.604 101.575C238.899 116.328 228.117 129.754 215.589 141.439L215.52 141.493C214.479 142.458 213.2 143.128 211.814 143.434C209.868 143.923 207.809 143.623 206.082 142.602L206.024 142.575C199.155 138.861 193.36 133.439 189.201 126.832L189.185 126.799C188.86 126.281 188.621 125.714 188.477 125.119C188.285 124.288 188.282 123.423 188.467 122.59C188.653 121.757 189.022 120.976 189.549 120.304C189.549 120.304 195.768 111.98 202.478 102.582C203.382 102.653 204.34 102.69 205.351 102.69C211.148 102.622 216.933 102.184 222.674 101.379V77.2579C222.674 72.3259 222.359 70.0139 221.335 68.2408C219.522 65.0777 215.428 63.4545 209.209 63.4545C203.657 63.4185 198.168 64.6274 193.145 66.9922V76.1862C197.553 73.8991 202.43 72.6599 207.396 72.5652C210.465 72.5652 211.56 73.3373 211.56 75.4932V78.1153C196.678 79.3473 190.615 83.2013 190.615 91.5254C190.615 97.6207 193.474 101.063 199.688 102.236C191.522 111.666 183.838 121.503 176.668 131.71C172.087 138.14 167.725 144.603 163.582 151.097L163.547 151.155C162.324 153.01 160.415 154.303 158.238 154.751C156.584 155.15 154.85 155.068 153.241 154.514L153.079 154.451C148.986 152.853 145.047 150.888 141.307 148.583C134.707 144.589 128.829 139.51 123.92 133.56L123.874 133.506C123.312 132.839 122.913 132.052 122.708 131.204C122.395 129.886 122.569 128.499 123.198 127.298L123.285 127.117C125.621 122.747 128.174 118.441 130.768 114.096C131.828 112.322 132.908 110.57 134.007 108.84L134.172 108.592C134.243 108.503 134.281 108.393 134.28 108.28C134.279 108.212 134.265 108.144 134.238 108.082C134.212 108.019 134.173 107.963 134.124 107.915C134.075 107.868 134.018 107.83 133.954 107.805C133.891 107.78 133.824 107.767 133.756 107.768C133.67 107.767 133.586 107.788 133.51 107.827C133.435 107.866 133.369 107.923 133.32 107.993L133.26 108.061C124.232 119.9 115.944 131.849 108.424 143.786L108.288 144.005C107.672 144.942 106.876 145.748 105.947 146.378C105.018 147.007 103.975 147.448 102.875 147.674C101.391 148.025 99.8428 148.005 98.3677 147.617L98.2303 147.582C98.1907 147.582 98.1512 147.557 98.1116 147.544C95.6559 146.779 93.2405 145.89 90.8746 144.881C80.7159 140.762 71.7569 134.155 64.8225 125.669L64.7204 125.538C64.2504 124.914 63.9138 124.2 63.7315 123.44C63.3879 122.003 63.6116 120.488 64.3561 119.211L64.3832 119.159C67.3646 113.622 70.6167 107.841 74.1207 102.078H84.5057V77.8739C84.5057 72.4778 83.5605 69.5498 81.0413 67.1608C78.4429 64.6948 74.4267 63.4607 69.0739 63.4607C64.3967 63.4319 59.7623 64.3522 55.4514 66.1661C51.9615 64.172 47.9679 63.2323 43.9545 63.4607C41.8748 63.4584 39.7965 63.5717 37.7293 63.7999C56.4757 41.2898 78.2908 21.5214 102.536 5.07345C105.063 3.34179 107.835 1.99783 110.76 1.08621C114.449 0.341205 120.377 4.66973 120.377 4.66973C122.459 6.05708 124.511 7.57207 126.535 9.21469C131.388 13.155 135.708 17.7089 139.387 22.7622L139.419 22.8059C139.799 23.3719 140.002 24.0385 140.002 24.7204C140.001 25.1787 139.908 25.6323 139.729 26.0543C139.551 26.4764 139.289 26.8585 138.961 27.1781C138.961 27.1781 125.992 39.6642 119.627 46.2694L119.579 46.3256C119.489 46.4195 119.438 46.5448 119.438 46.6752C119.439 46.8134 119.496 46.9453 119.594 47.042C119.693 47.1387 119.826 47.1924 119.964 47.1913C120.089 47.1899 120.21 47.1459 120.306 47.0664L120.333 47.0415C132.342 36.0998 145.38 26.3431 159.266 17.9071C161.934 16.3646 164.772 15.1369 167.723 14.2487C171.055 13.6348 176.468 17.647 176.468 17.647C178.517 18.9976 180.615 20.4772 182.593 22.0796C187.344 25.8997 191.589 30.3095 195.225 35.2025L195.262 35.2566C195.651 35.8239 195.86 36.4957 195.86 37.1836C195.859 37.6527 195.762 38.1166 195.574 38.5463C195.386 38.976 195.111 39.3623 194.767 39.6809C194.767 39.6809 183.136 51.7092 177.124 57.7275L177.005 57.8399C176.917 57.9358 176.867 58.0611 176.866 58.1916C176.866 58.26 176.88 58.3277 176.906 58.3907C176.933 58.4537 176.972 58.5109 177.02 58.5589C177.069 58.6068 177.127 58.6447 177.19 58.6702C177.254 58.6958 177.322 58.7085 177.39 58.7077C177.519 58.7078 177.643 58.6612 177.74 58.5766C177.74 58.5766 207.858 32.0685 216.253 30.7574C228.699 28.8159 261.407 47.287 264.451 56.3083C265.139 58.3384 265.181 60.5316 264.572 62.5867ZM119.161 77.2579C119.161 72.3259 118.846 70.0139 117.822 68.2408C116.011 65.0777 111.917 63.4545 105.696 63.4545C100.145 63.4182 94.6559 64.6272 89.6337 66.9922V76.1862C94.0421 73.8991 98.9191 72.6599 103.885 72.5652C106.956 72.5652 108.049 73.3373 108.049 75.4932V78.1153C93.1752 79.3389 87.1145 83.193 87.1145 91.5171C87.1145 99.2169 91.6803 102.694 101.838 102.694C107.635 102.626 113.42 102.189 119.161 101.383V77.2579ZM148.117 64.2286C145.883 63.683 143.588 63.4249 141.288 63.4607C134.976 63.5291 128.73 64.7572 122.862 67.0838V102.078H134.986V74.7919C137.444 73.9518 140.027 73.5346 142.625 73.5579C144.479 73.5411 146.327 73.7777 148.117 74.2612V64.2286ZM26.5 78.5C28.5 75.3 36.1667 66.1667 40 62L49.5 59.5L105 52.5L133 50L140.5 42L169.5 34V62L256.5 59.5C256.333 66.5 256.1 80.9 256.5 82.5C256.9 84.1 249 98.1667 245 105L222.5 107.5L200 107C200.667 105.5 205.061 100.561 204 99.5C203 98.5 199 101.833 196.5 105.5L76 105L71 101.5L54 105H25C24.6667 97.5 24.5 81.7 26.5 78.5Z" stroke="#F25415"/>
<path d="M42.5493 67.8951V97.7103H30V62.4393C34.2344 59.4424 40.5476 56.9834 47.4766 56.9834C52.4809 56.9834 56.4074 57.9823 59.256 59.9803C62.3356 58.0592 66.0311 56.9834 70.1115 56.9834C82.1219 56.9834 87.8191 62.5161 87.8191 74.0426V97.7103H75.2698V74.4268C75.2698 69.1246 73.4221 66.8962 69.2646 66.8962C67.4939 66.8962 65.8771 67.2804 64.4143 67.972C64.8762 69.7394 65.0302 71.7373 65.0302 74.0426V97.7103H52.5579V74.4268C52.5579 69.1246 50.7102 66.8962 46.5527 66.8962C45.1669 66.8962 43.8581 67.2804 42.5493 67.8951Z" fill="#006064"/>
<path d="M89.3661 79.4984V76.1173C89.3661 64.053 95.8332 56.9834 109.46 56.9834C123.087 56.9834 129.632 64.053 129.632 76.1173V79.4984C129.632 91.5628 123.087 98.6324 109.46 98.6324C95.8332 98.6324 89.3661 91.5628 89.3661 79.4984ZM117.082 79.729V75.8868C117.082 69.7394 114.234 66.8962 109.383 66.8962C104.61 66.8962 101.838 69.7394 101.838 75.8868V79.729C101.838 85.8764 104.687 88.7196 109.537 88.7196C114.311 88.7196 117.082 85.8764 117.082 79.729Z" fill="#006064"/>
<path d="M131.136 114.001V62.4393C136.371 58.8276 142.992 56.9834 149.382 56.9834C162.933 56.9834 169.4 62.7466 169.4 76.0405V79.4984C169.4 92.7923 163.548 98.6324 152 98.6324C148.843 98.6324 145.841 97.9408 143.685 96.7113V114.001H131.136ZM156.85 79.8827V75.7331C156.85 70.1236 155.003 66.8962 149.151 66.8962C147.227 66.8962 145.379 67.2804 143.685 67.972V86.9522C145.379 88.1049 147.304 88.7196 149.844 88.7196C155.08 88.7196 156.85 85.4922 156.85 79.8827Z" fill="#006064"/>
<path d="M172.301 97.7103V57.9055H184.85V97.7103H172.301ZM178.537 52.0654C174.225 52.0654 171.685 50.7591 171.685 47.6854V45.9948C171.685 42.8442 174.225 41.6147 178.537 41.6147C182.925 41.6147 185.466 42.8442 185.466 45.9948V47.6854C185.466 50.7591 182.925 52.0654 178.537 52.0654Z" fill="#006064"/>
<path d="M192.65 67.8183H186.337V57.9055H192.65V54.0633C192.65 45.918 195.729 41 205.815 41C209.28 41 212.898 41.6916 215.747 42.8442V52.0654C213.591 51.297 211.204 50.9128 208.587 50.9128C206.046 50.9128 205.199 52.0654 205.199 54.3707V57.9055H215.747V67.8183H205.199V97.7103H192.65V67.8183Z" fill="#006064"/>
<path d="M240.451 57.9055H253V97.9408C253 109.237 247.38 115 234.369 115C229.21 115 223.359 114.155 218.971 112.234V101.706C223.359 104.011 228.132 105.01 232.444 105.01C237.371 105.01 240.451 102.859 240.451 97.7103V96.6345C238.064 97.7871 234.6 98.6324 231.212 98.6324C220.587 98.6324 215.737 93.3302 215.737 81.6501V57.9055H228.286V81.2658C228.286 86.4143 229.903 88.7196 234.292 88.7196C236.447 88.7196 238.911 87.8744 240.451 86.6449V57.9055Z" fill="#006064"/>
</svg>
